<?xml version="1.0" encoding="UTF-8" standalone="no"?>
<!DOCTYPE svg PUBLIC "-//W3C//DTD SVG 1.1//EN" "http://www.w3.org/Graphics/SVG/1.1/DTD/svg11.dtd">
<svg width="100%" height="100%" viewBox="0 0 2048 2048" version="1.1" xmlns="http://www.w3.org/2000/svg" xmlns:xlink="http://www.w3.org/1999/xlink" xml:space="preserve" xmlns:serif="http://www.serif.com/" style="fill-rule:evenodd;clip-rule:evenodd;stroke-linecap:round;stroke-linejoin:round;stroke-miterlimit:1.5;">
    <g id="レイヤー7">
        <path d="M1207.01,123.223C1147.04,96.644 940.386,393.618 846.325,462.941C792.43,502.661 655.514,570.36 655.514,570.36C655.514,570.36 636.555,1320.76 633.092,1500.86C631.809,1567.58 522.605,1599.25 456.356,1594.92C390.108,1590.6 235.6,1474.88 235.6,1474.88C235.6,1474.88 264.514,1654.66 300.741,1730.33C336.753,1805.55 406.471,1935.02 486.895,1912.96C588.063,1885.21 827.153,1765.19 830.814,1597.77C835.163,1398.9 842.979,930.333 843.89,772.237C844.256,708.63 882.085,655.12 928.331,655.006C961.582,654.924 1033.72,650.548 1033.72,650.548C1033.72,650.548 1102.44,917.833 1105.18,1054.14C1109.34,1261.71 932.789,1924.17 932.789,1924.17C932.789,1924.17 1118.21,1928.77 1159.72,1928.99C1192.34,1929.16 1141.04,1866.26 1145.91,1834.96C1159.79,1745.86 1242.96,1394.37 1242.96,1394.37C1242.96,1394.37 1399.09,1357.08 1444.16,1406.92C1509.54,1479.21 1601.39,1829.8 1635.21,1828.13C1691.63,1825.34 1660.77,1157.66 1663.1,1026.22C1665.33,900.321 1683.87,754.175 1594.93,664.008C1464.91,532.187 1064.2,564.201 1064.2,564.201C1064.2,564.201 1241.69,138.596 1207.01,123.223ZM1257.61,1053.64C1259.63,901.001 1347.25,867.667 1398.86,869.688C1512.2,874.124 1560.14,959.055 1559.48,1030.37C1558.79,1105.64 1475.51,1195.41 1398.86,1192C1316.26,1188.32 1256.64,1127.18 1257.61,1053.64Z" style="stroke:black;stroke-width:1px;"/>
    </g>
</svg>
