<?xml version="1.0" encoding="UTF-8" standalone="no"?>
<!DOCTYPE svg PUBLIC "-//W3C//DTD SVG 1.1//EN" "http://www.w3.org/Graphics/SVG/1.1/DTD/svg11.dtd">
<svg width="100%" height="100%" viewBox="0 0 2048 2048" version="1.1" xmlns="http://www.w3.org/2000/svg" xmlns:xlink="http://www.w3.org/1999/xlink" xml:space="preserve" xmlns:serif="http://www.serif.com/" style="fill-rule:evenodd;clip-rule:evenodd;stroke-linecap:round;stroke-linejoin:round;stroke-miterlimit:1.5;">
    <g id="レイヤー7">
        <path d="M1716.92,120.318C1705.13,191.045 1452.93,421.561 1449.2,874.525C1446.25,1231.97 1596.79,1651.25 1590.97,1787.75C1588.55,1844.51 1445.2,1834.9 1416.05,1786.14C1367.32,1704.63 1295.23,1119.45 1301.58,862.698C1312.06,439.606 1483.79,81.659 1587.37,83.97C1641.52,85.178 1723.96,78.043 1716.92,120.318Z" style="stroke:black;stroke-width:1px;"/>
        <path d="M1090.86,827.621C1052.54,774.153 897.458,871.819 896.044,948.069C893.243,1099.08 882.07,1613.77 879.426,1772.02C878.14,1849.01 1079.43,1955.58 1081.04,1878.6C1085.89,1646.67 1119.88,1448.03 1125.98,1268.88C1131.06,1119.44 1129.18,881.089 1090.86,827.621Z" style="stroke:black;stroke-width:1px;"/>
        <path d="M1106.42,185.937C1107.5,90.02 398.552,167.985 398.552,167.985C398.552,167.985 386.047,1058.37 379.606,1336.61C374.358,1563.27 466.157,2024.42 557.567,1994.13C621.207,1973.04 608.51,1519.28 581.221,1151.19C568.827,984.003 535.218,534.615 536.595,424.755C538.688,257.685 1104.55,352.841 1106.42,185.937Z" style="stroke:black;stroke-width:1px;"/>
    </g>
</svg>
