<?xml version="1.0" encoding="UTF-8" standalone="no"?>
<!DOCTYPE svg PUBLIC "-//W3C//DTD SVG 1.1//EN" "http://www.w3.org/Graphics/SVG/1.1/DTD/svg11.dtd">
<svg width="100%" height="100%" viewBox="0 0 2048 2048" version="1.1" xmlns="http://www.w3.org/2000/svg" xmlns:xlink="http://www.w3.org/1999/xlink" xml:space="preserve" xmlns:serif="http://www.serif.com/" style="fill-rule:evenodd;clip-rule:evenodd;stroke-linecap:round;stroke-linejoin:round;stroke-miterlimit:1.5;">
    <g id="レイヤー7">
        <path d="M1321.9,145.329C1286.36,112.706 1006.32,237.709 1004.58,366.657C1002.57,515.696 994.428,1111.53 994.428,1111.53L694.534,1107.39C694.534,1107.39 637.984,988.742 632.501,883.745C624.157,723.966 797.42,576.386 764.538,540.263C731.657,504.141 387.694,664.688 380.382,792.626C373.081,920.352 482.679,1103.12 482.968,1263.89C483.313,1456.26 395.366,1755.04 391.213,1900.08C389.285,1967.43 544.795,1976.14 583.28,1923.97C649.36,1834.4 696.902,1414.1 696.902,1414.1L984.003,1416.35L981.504,1962.12C981.504,1962.12 1431.49,1999.74 1539.62,1911.38C1683.73,1793.6 1498.08,1462.13 1500.65,1270.66C1503.17,1083.71 1647.06,844.555 1597.06,728.066C1522.44,554.202 1162.05,624.189 1162.05,624.189C1162.05,624.189 1195.62,483.18 1222.92,400.436C1261.59,283.213 1342.73,164.453 1321.9,145.329ZM1135.62,1418.39L1137.43,1750.74C1137.43,1750.74 1373.25,1783.47 1429.73,1730.89C1486.21,1678.32 1389.92,1415.32 1389.92,1415.32L1135.62,1418.39ZM1298.21,793.707C1230.78,793.242 1126.56,829.037 1126.56,829.037L1124.72,1114.58L1396.91,1121.79C1396.91,1121.79 1457.67,963.198 1458.82,905.517C1459.95,848.419 1365.65,794.173 1298.21,793.707Z" style="stroke:black;stroke-width:1px;"/>
    </g>
</svg>
