<?xml version="1.0" encoding="UTF-8" standalone="no"?>
<!DOCTYPE svg PUBLIC "-//W3C//DTD SVG 1.1//EN" "http://www.w3.org/Graphics/SVG/1.1/DTD/svg11.dtd">
<svg width="100%" height="100%" viewBox="0 0 2048 2048" version="1.1" xmlns="http://www.w3.org/2000/svg" xmlns:xlink="http://www.w3.org/1999/xlink" xml:space="preserve" xmlns:serif="http://www.serif.com/" style="fill-rule:evenodd;clip-rule:evenodd;stroke-linecap:round;stroke-linejoin:round;stroke-miterlimit:1.5;">
    <g id="レイヤー7">
        <path d="M1577.31,605.068C1582,809.609 1576.78,1566.43 1576.65,1802.06C1576.6,1899.72 1380.41,2113.52 1376.45,2015.95C1370.84,1877.61 1378.96,1006.81 1378.96,1006.81L1072.37,1009.59C1072.37,1009.59 1072.5,1557.07 1070.09,1712.84C1068.58,1810.75 862.227,2013.32 864.195,1916.91C867.951,1732.94 863.731,849.723 867.099,653.831C868.241,587.351 1063.24,577.057 1066.88,652.41C1067.92,673.919 1070.69,702.107 1070.69,702.107L1374.09,702.843C1374.09,702.843 1375.03,628.681 1375.83,601.531C1377.18,555.835 1575.73,536.191 1577.31,605.068Z" style="stroke:black;stroke-width:1px;"/>
        <path d="M663.707,150.505C662.042,336.824 665.608,1426.26 664.092,1725.35C663.624,1817.58 459.73,2006.04 462.54,1912.99C466.931,1767.59 460.302,1088.15 464.845,918.417C466.455,858.265 338.553,829.842 353.546,771.566C391.241,625.049 665.2,-16.713 663.707,150.505Z" style="stroke:black;stroke-width:1px;"/>
    </g>
</svg>
