<?xml version="1.0" encoding="UTF-8" standalone="no"?>
<!DOCTYPE svg PUBLIC "-//W3C//DTD SVG 1.1//EN" "http://www.w3.org/Graphics/SVG/1.1/DTD/svg11.dtd">
<svg width="100%" height="100%" viewBox="0 0 2048 2048" version="1.1" xmlns="http://www.w3.org/2000/svg" xmlns:xlink="http://www.w3.org/1999/xlink" xml:space="preserve" xmlns:serif="http://www.serif.com/" style="fill-rule:evenodd;clip-rule:evenodd;stroke-linecap:round;stroke-linejoin:round;stroke-miterlimit:1.5;">
    <g id="レイヤー7">
        <path d="M1474.67,145.628C1347.86,223.385 860.969,528.23 860.969,528.23C860.969,528.23 769.826,1319.6 816.129,1585.7C858.067,1826.71 1004.19,1945.75 1032.12,1922.16C1068.15,1891.73 941.723,1691.45 920.724,1578.34C900.104,1467.26 915.98,1292.9 915.98,1292.9C915.98,1292.9 1138.69,1211.45 1173.74,1165.22C1198.54,1132.51 1228.01,985.584 1241.3,845.427C1255.09,700.017 1252.23,561.814 1252.23,561.814C1252.23,561.814 1479.38,394.205 1538.76,314.543C1580.36,258.747 1549.27,99.891 1474.67,145.628ZM965.927,752.93C965.927,752.93 947.201,865.587 942.154,919.635C937.282,971.819 932.864,1023.45 960.739,1044.42C988.615,1065.39 1062.88,1055.35 1092.69,1021.68C1155.62,950.573 1169.43,607.876 1169.43,607.876L965.927,752.93Z" style="stroke:black;stroke-width:1px;"/>
    </g>
</svg>
