<?xml version="1.0" encoding="UTF-8" standalone="no"?>
<!DOCTYPE svg PUBLIC "-//W3C//DTD SVG 1.1//EN" "http://www.w3.org/Graphics/SVG/1.1/DTD/svg11.dtd">
<svg width="100%" height="100%" viewBox="0 0 2048 2048" version="1.1" xmlns="http://www.w3.org/2000/svg" xmlns:xlink="http://www.w3.org/1999/xlink" xml:space="preserve" xmlns:serif="http://www.serif.com/" style="fill-rule:evenodd;clip-rule:evenodd;stroke-linecap:round;stroke-linejoin:round;stroke-miterlimit:1.5;">
    <g id="レイヤー7">
        <path d="M1695.66,536.208C1695.66,536.208 1706.84,1604.32 1702.97,1842.73C1701.27,1947.08 1443.6,1988.59 1410.84,1955.43C1378.09,1922.26 1493.74,1755.35 1493.35,1646.68C1492.74,1477.65 1507.38,957.942 1451.07,944.055C1345.64,918.058 1128,985.796 1128,985.796C1128,985.796 1402.04,552.742 1509.53,544.41C1561.42,540.389 1695.66,536.208 1695.66,536.208Z" style="stroke:black;stroke-width:1px;"/>
        <path d="M868.17,331.702C903.657,411.73 878.301,698.094 893.774,833.243C902.806,912.138 1100.63,903.457 1100.6,982.867C1100.54,1150.11 1095.48,1578.55 1093.44,1745.69C1091.89,1872.79 911.896,1967.04 774.044,1959.82C636.486,1952.62 420.682,1617.93 397.771,1299.47C382.204,1083.09 409.443,810.764 490.395,649.156C566.004,498.215 838.214,264.146 868.17,331.702ZM696.217,950.178C816.951,954.823 934.517,1055.25 962.219,1166.57C992.814,1289.51 973.329,1430.56 971.855,1539.4C970.405,1646.48 847.044,1758.56 749.716,1756.7C662.822,1755.04 540.947,1476.64 544.498,1341.97C548.242,1199.99 609.89,946.856 696.217,950.178Z" style="stroke:black;stroke-width:1px;"/>
    </g>
</svg>
