<?xml version="1.0" encoding="UTF-8" standalone="no"?>
<!DOCTYPE svg PUBLIC "-//W3C//DTD SVG 1.1//EN" "http://www.w3.org/Graphics/SVG/1.1/DTD/svg11.dtd">
<svg width="100%" height="100%" viewBox="0 0 2048 2048" version="1.1" xmlns="http://www.w3.org/2000/svg" xmlns:xlink="http://www.w3.org/1999/xlink" xml:space="preserve" xmlns:serif="http://www.serif.com/" style="fill-rule:evenodd;clip-rule:evenodd;stroke-linecap:round;stroke-linejoin:round;stroke-miterlimit:1.5;">
    <g id="レイヤー7">
        <path d="M1094.5,282.716C1094.45,366.729 889.794,600.056 887.916,750.512C884.597,1016.49 892.667,1670.76 886.918,1892.17C885.38,1951.37 785.311,2039.81 743.844,1997.53C678.79,1931.18 505.776,1635.26 496.594,1494.12C488.078,1363.22 686.865,1291.25 688.75,1150.7C690.586,1013.77 472.979,776.51 388.5,679.598C337.19,620.736 181.875,569.226 181.875,569.226L181.025,170.632L282.14,168.673L283.679,473.239C283.679,473.239 420.176,474.167 488.912,479.823C560.068,485.679 701.094,569.539 701.094,569.539C701.094,569.539 833.37,233.57 898.937,185.766C957.729,142.902 1094.55,209.958 1094.5,282.716Z" style="stroke:black;stroke-width:1px;"/>
        <path d="M1393.23,475.519C1502.35,477.287 1743.76,779 1748.97,986.464C1750.57,1050.3 1604.86,1155.31 1606.83,1260.47C1610.45,1453.61 1608.97,1758.64 1608.74,1791.94C1608.12,1882.33 1485.52,1893.33 1450.03,1898.34C1369.55,1909.69 1366.98,1337.18 1307.78,1194.28C1274.3,1113.46 1097.96,1128.34 1094.81,1040.91C1090.7,926.605 1283.84,473.747 1393.23,475.519Z" style="stroke:black;stroke-width:1px;"/>
    </g>
</svg>
