<?xml version="1.0" encoding="UTF-8" standalone="no"?>
<!DOCTYPE svg PUBLIC "-//W3C//DTD SVG 1.1//EN" "http://www.w3.org/Graphics/SVG/1.1/DTD/svg11.dtd">
<svg width="100%" height="100%" viewBox="0 0 2048 2048" version="1.1" xmlns="http://www.w3.org/2000/svg" xmlns:xlink="http://www.w3.org/1999/xlink" xml:space="preserve" xmlns:serif="http://www.serif.com/" style="fill-rule:evenodd;clip-rule:evenodd;stroke-linecap:round;stroke-linejoin:round;stroke-miterlimit:1.5;">
    <g id="レイヤー7">
        <path d="M1510.94,487.299C1627.21,486.367 1807.83,597.383 1811.22,697.18C1814.9,805.443 1826.3,802.966 1809.14,900.773C1798.74,960.067 1713.38,971.626 1713.84,1048.27C1715.24,1279.15 1716.55,1617.08 1711.93,1771.91C1703.64,2049.62 1117.76,1920.55 1110.18,1754.25C1103.55,1608.51 1109.64,1430.96 1108.81,1298.03C1108.07,1178.66 894.971,1094.59 793.83,1128.35C692.69,1162.11 550.947,1328.04 553.164,1449.8C555.34,1569.32 701.447,1746.62 699,1815.44C697.297,1863.34 655.578,1913.87 593.969,1913.64C436.598,1913.04 390.709,1585.11 396.969,1430.37C408.528,1144.61 706.506,1010.31 706.506,1010.31C706.506,1010.31 698.47,511.033 698.37,399.488C698.3,320.601 895.803,209.665 900.719,288.398C906.963,388.392 905.593,969.564 905.593,969.564C905.593,969.564 1051.01,929.694 1107.34,885.174C1208.95,804.885 1341.3,488.659 1510.94,487.299ZM1415.56,891.348C1542.84,888.329 1612.28,999.365 1612.54,1097.02C1612.88,1224.26 1618.76,1477.11 1617.51,1596.38C1615.54,1785.62 1483.46,1790.14 1363.66,1789.4C1295.29,1788.98 1212.71,1688.83 1208.78,1606.46C1202.88,1482.79 1204.46,1223.7 1208.41,1105.63C1211.74,1006.34 1347.33,892.967 1415.56,891.348Z" style="stroke:black;stroke-width:1px;"/>
    </g>
</svg>
