<?xml version="1.0" encoding="UTF-8" standalone="no"?>
<!DOCTYPE svg PUBLIC "-//W3C//DTD SVG 1.1//EN" "http://www.w3.org/Graphics/SVG/1.1/DTD/svg11.dtd">
<svg width="100%" height="100%" viewBox="0 0 2048 2048" version="1.1" xmlns="http://www.w3.org/2000/svg" xmlns:xlink="http://www.w3.org/1999/xlink" xml:space="preserve" xmlns:serif="http://www.serif.com/" style="fill-rule:evenodd;clip-rule:evenodd;stroke-linecap:round;stroke-linejoin:round;stroke-miterlimit:1.5;">
    <g id="レイヤー7">
        <path d="M1379.85,291.894C1384.38,345.232 1287.55,421.848 1286.67,496.907C1283.79,744.286 1289.46,1565.8 1287.78,1815.08C1287.15,1909.47 1090.16,2088.44 1086.69,2014.44C1082.96,1934.86 1076,1407.98 1076,1407.98L791.474,1407.26C791.474,1407.26 795.496,1823.18 771.271,1918.7C755.501,1980.87 581.132,1978.48 578.895,1914.38C575.902,1828.61 577.124,1408.81 577.124,1408.81L384.205,1405.34C384.205,1405.34 375.44,1806.82 369.299,1914.09C365.53,1979.94 78.671,1981.98 78.115,1916.03C75.739,1633.88 68.407,549.173 74.128,286.902C75.569,220.848 372.732,214.318 372.831,280.387C373.071,440.836 382.996,1206.54 382.996,1206.54L578.087,1208.63C578.087,1208.63 574.417,878.436 581.485,706.534C584.256,639.141 736.995,691.107 761.049,693.987C822.924,701.393 1078.74,913.822 1078.74,913.822C1078.74,913.822 1054.38,459.484 1077.77,362.805C1100.7,268.053 1375.84,244.779 1379.85,291.894Z" style="stroke:black;stroke-width:1px;"/>
        <path d="M1895.91,701.565C1895.91,701.565 1895.1,1712.22 1894.62,1915.74C1894.45,1989.1 1675.47,1974.06 1674.76,1906.06C1673.08,1745 1680.79,1181.3 1679.3,1010.49C1678.62,931.727 1494.94,958.451 1489.03,897.343C1482.81,833.031 1492.47,699.856 1492.47,699.856L1895.91,701.565Z" style="stroke:black;stroke-width:1px;"/>
    </g>
</svg>
